<?xml version="1.0" encoding="UTF-8" standalone="no"?>
<!-- Created with Inkscape (http://www.inkscape.org/) -->

<svg
   xmlns:osb="http://www.openswatchbook.org/uri/2009/osb"
   xmlns:dc="http://purl.org/dc/elements/1.1/"
   xmlns:cc="http://creativecommons.org/ns#"
   xmlns:rdf="http://www.w3.org/1999/02/22-rdf-syntax-ns#"
   xmlns:svg="http://www.w3.org/2000/svg"
   xmlns="http://www.w3.org/2000/svg"
   xmlns:sodipodi="http://sodipodi.sourceforge.net/DTD/sodipodi-0.dtd"
   xmlns:inkscape="http://www.inkscape.org/namespaces/inkscape"
   width="371.5032"
   height="371.38657"
   id="svg2"
   version="1.1"
   inkscape:version="0.48.3.1 r9886"
   sodipodi:docname="icon.svg">
  <sodipodi:namedview
     id="base"
     pagecolor="#ffffff"
     bordercolor="#666666"
     borderopacity="1.0"
     inkscape:pageopacity="0.0"
     inkscape:pageshadow="2"
     inkscape:zoom="0.9899495"
     inkscape:cx="283.98346"
     inkscape:cy="44.252566"
     inkscape:document-units="px"
     inkscape:current-layer="capa1"
     showgrid="false"
     inkscape:snap-global="true"
     inkscape:window-width="1280"
     inkscape:window-height="974"
     inkscape:window-x="0"
     inkscape:window-y="0"
     inkscape:window-maximized="1"
     fit-margin-top="5"
     fit-margin-left="5"
     fit-margin-right="5"
     fit-margin-bottom="5" />
  <defs
     id="defs4">
    <linearGradient
       id="linearGradient5197"
       osb:paint="solid">
      <stop
         style="stop-color:#000000;stop-opacity:1;"
         offset="0"
         id="stop5199" />
    </linearGradient>
  </defs>
  <metadata
     id="metadata7">
    <rdf:RDF>
      <cc:Work
         rdf:about="">
        <dc:format>image/svg+xml</dc:format>
        <dc:type
           rdf:resource="http://purl.org/dc/dcmitype/StillImage" />
        <dc:title />
      </cc:Work>
    </rdf:RDF>
  </metadata>
  <g
     inkscape:label="Capa 1"
     inkscape:groupmode="layer"
     id="capa1"
     transform="translate(141.64889,-109.59862)">
    <g
       inkscape:label="Gear12"
       transform="translate(-39.025277,174.25451)"
       id="g5430">
      <path
         style="fill:none;stroke:#000000"
         d="M 0,0 0,0 0,0 0,0 0,0 0,0 0,0 0,0 0,0 0,0 0,0 0,0 0,0 0,0 0,0 0,0 0,0 0,0 0,0 0,0 0,0 0,0 0,0 0,0 0,0 0,0 0,0 0,0 0,0 0,0 0,0 0,0 0,0 0,0 0,0 0,0 0,0 0,0 0,0 0,0 0,0 0,0 0,0 0,0 0,0 0,0 0,0 0,0 0,0 0,0 0,0 0,0 0,0 0,0 0,0 0,0 0,0 0,0 0,0 0,0 0,0 0,0 0,0 0,0 0,0 0,0 0,0 0,0 0,0 0,0 0,0 0,0 0,0 0,0 0,0 0,0 0,0 0,0 0,0 0,0 0,0 0,0 0,0 0,0 0,0 0,0 0,0 0,0 0,0 0,0 0,0 0,0 0,0 0,0 0,0 0,0 z"
         id="path5432"
         inkscape:connector-curvature="0" />
    </g>
    <g
       id="g5458"
       transform="translate(-136.14889,115.09862)"
       inkscape:label="Gear12">
      <path
         id="path5460"
         d="M 0,0 0,0 0,0 0,0 0,0 0,0 0,0 0,0 0,0 0,0 0,0 0,0 0,0 0,0 0,0 0,0 0,0 0,0 0,0 0,0 0,0 0,0 0,0 0,0 0,0 0,0 0,0 0,0 0,0 0,0 0,0 0,0 0,0 0,0 0,0 0,0 0,0 0,0 0,0 0,0 0,0 0,0 0,0 0,0 0,0 0,0 0,0 0,0 0,0 0,0 0,0 0,0 0,0 0,0 0,0 0,0 0,0 0,0 0,0 0,0 0,0 0,0 0,0 0,0 0,0 0,0 0,0 0,0 0,0 0,0 0,0 0,0 0,0 0,0 0,0 0,0 0,0 0,0 0,0 0,0 0,0 0,0 0,0 0,0 0,0 0,0 0,0 0,0 0,0 0,0 0,0 0,0 0,0 0,0 0,0 0,0 z"
         style="fill:none;stroke:#000000"
         inkscape:connector-curvature="0" />
    </g>
    <path
       style="fill:#000000;fill-opacity:1;stroke:#000000;stroke-width:2;stroke-miterlimit:4;stroke-opacity:1;stroke-dasharray:none;stroke-dashoffset:0.8496181"
       d="m -1.1629102,124.26065 c -15.4889798,4.0889 -30.1385498,10.24692 -43.6562498,18.125 7.28434,15.08208 14.75016,30.77485 15.75,44.875 -13.72491,9.31379 -25.59708,21.14671 -34.90625,34.875 -14.09574,-1.0089 -29.80052,-8.46862 -44.875,-15.75 -7.86677,13.5065 -13.97767,28.15145 -18.0625,43.625 15.81041,5.50893 32.19377,11.33965 42.875,20.59375 -1.53012,7.99188 -2.34375,16.24957 -2.34375,24.6875 0,8.4432 0.81177,16.69096 2.34375,24.6875 -10.68121,9.24854 -27.06459,15.06083 -42.875,20.5625 4.08801,15.48559 10.21815,30.14101 18.09375,43.65625 15.0749,-7.28426 30.78033,-14.75152 44.875,-15.75 9.30566,13.71376 21.16152,25.56896 34.875,34.875 -0.99848,14.09467 -8.46574,29.8001 -15.75,44.875 13.51738,7.87751 28.16778,14.03643 43.6562498,18.125 5.51179,-15.81898 11.3342002,-32.21882 20.5937502,-42.90625 7.98801,1.52857 16.25393,2.34375 24.6875,2.34375 8.4442,0 16.69008,-0.81142 24.6875,-2.34375 9.25396,10.68743 15.05797,27.08727 20.5625,42.90625 15.48847,-4.08857 30.13887,-10.24749 43.65625,-18.125 -7.28426,-15.0749 -14.75152,-30.78033 -15.75,-44.875 13.71348,-9.30604 25.56934,-21.16124 34.875,-34.875 14.09467,0.99848 29.8001,8.46574 44.875,15.75 7.8756,-13.51524 14.00574,-28.17066 18.09375,-43.65625 -15.81041,-5.50167 -32.19379,-11.31396 -42.875,-20.5625 1.53198,-7.99654 2.34375,-16.2443 2.34375,-24.6875 0,-8.43793 -0.81363,-16.69562 -2.34375,-24.6875 10.68123,-9.2541 27.06459,-15.08482 42.875,-20.59375 -4.08483,-15.47355 -10.19573,-30.1185 -18.0625,-43.625 -15.07448,7.28138 -30.77926,14.7411 -44.875,15.75 -9.30917,-13.72829 -21.18134,-25.56121 -34.90625,-34.875 0.99984,-14.10015 8.46566,-29.79292 15.75,-44.875 -13.5177,-7.87808 -28.16727,-14.0361 -43.65625,-18.125 -5.51152,15.82918 -11.32206,32.22397 -20.59375,42.90625 -7.98801,-1.52857 -16.22268,-2.34375 -24.65625,-2.34375 -8.42294,0 -16.67766,0.81894 -24.65625,2.34375 C 10.18482,156.48462 4.3558798,140.08983 -1.1629102,124.26065 z M 44.11834,238.4794 c 31.38003,0 56.8125,25.43247 56.8125,56.8125 0,31.38003 -25.43247,56.8125 -56.8125,56.8125 -31.38003,0 -56.84375,-25.43247 -56.84375,-56.8125 0,-31.38003 25.46372,-56.8125 56.84375,-56.8125 z"
       id="path5553"
       inkscape:connector-curvature="0" />
  </g>
</svg>
